<svg id="eNrfs8xq4Kn1" xmlns="http://www.w3.org/2000/svg" xmlns:xlink="http://www.w3.org/1999/xlink" viewBox="0 0 1920 867" shape-rendering="geometricPrecision" text-rendering="geometricPrecision"><path d="M1502.2639,4.362126h-500.655186-578.684868q-8.711297.048105-10.700501,1.930744-5.176056,0-40.33575,0-29.774859,7.126314-48.323509,28.138456c-18.54865,21.012142-51.670352,45.444854-79.993234,46.577769q-29.078159,7.17513-92.708365,7.061543-25.489961,4.417048-37.256357,16.307301C101.839734,116.268192,14.785896,187.356876,1.541156,381.17628s51.000254,457.84985,370.346439,478.379499q420.806927,0,1170.179152,0Q1920.539574,819.754279,1920.539574,433.5c0-239.878392-91.707567-301.338744-127.124275-340.05003-8.546345-6.922816-24.936633-5.875055-36.788284-6.382983-84.012122-6.057892-111.189441,3.709242-171.166974-63.296908-24.348607-19.407953-34.785434-17.477209-66.758573-17.477209-7.305726,0-10.675593-1.930744-16.437568-1.930744Z" fill="none" stroke="#3f5787" stroke-width="3.84"/></svg>
