<svg id="eZQfCMkEh5L1" xmlns="http://www.w3.org/2000/svg" xmlns:xlink="http://www.w3.org/1999/xlink" viewBox="0 0 271.49 446.66" shape-rendering="geometricPrecision" text-rendering="geometricPrecision"><path d="M33.46829,309.88193c0-70.37244,57.68201-127.42058,128.83636-127.42058s128.83636,57.04814,128.83636,127.42058c0,39.41225-18.09246,74.64522-46.51127,98.01814-5.01358,5.98475-7.93343,13.16227-7.93343,20.87915c0,10.33131,5.23344,19.69586,13.71794,26.52579c32.10368,13.98621,54.54151,45.94782,54.54151,83.13925c0,50.07741-40.67982,90.67317-90.86093,90.67317s-87.931147-40.59576-87.931147-90.67317v0c0-48.566454,25.320756-55.587049,25.320756-76.754154c0-7.359311-3.617001-14.301314-7.723606-19.368379-1.139201-1.40564-8.547224-7.200422-26.772161-13.542507-59.99939-20.87915-83.520392-77.450933-83.520392-118.8973l.00001.00001Z" transform="translate(-33.46828-182.461349)" fill="none" stroke="#000" stroke-width="3"/></svg>
